<svg xmlns="http://www.w3.org/2000/svg" width="1200" height="900" viewBox="0 0 1200 900">
  <rect width="1200" height="900" fill="#d5c5ba"/><rect x="66" y="58" width="1068" height="780" rx="9" fill="#fcf7e8" transform="rotate(-1.2 600 450)"/>
  <g transform="rotate(-1.2 600 450)"><path d="M110 189h980M110 271h980M110 353h980M110 435h980M110 517h980M110 599h980M110 681h980" stroke="#d7a0a0" stroke-opacity=".42" stroke-width="3"/><text x="164" y="213" fill="#26443b" font-family="cursive" font-size="46">Demo feedback</text><text x="164" y="338" fill="#26443b" font-family="cursive" font-size="41">“Trying again was more fun than</text><text x="164" y="410" fill="#26443b" font-family="cursive" font-size="41">getting it right the first time.”</text><path d="M166 450c191 14 368 2 609-5" stroke="#e8785d" stroke-width="6" fill="none" stroke-linecap="round"/><text x="164" y="582" fill="#6a7d71" font-family="sans-serif" font-size="21" letter-spacing="3">PROTOTYPE FIXTURE · FOR UI TESTING ONLY</text><path d="m961 568 10 25 25 10-25 10-10 25-10-25-25-10 25-10z" fill="#8ebdd0"/></g>
</svg>
