<svg xmlns="http://www.w3.org/2000/svg" width="900" height="1200" viewBox="0 0 900 1200">
  <rect width="900" height="1200" fill="#d6c4cb"/><rect x="58" y="55" width="784" height="1100" rx="8" fill="#fff9ed" transform="rotate(-.8 450 600)"/>
  <g transform="rotate(-.8 450 600)"><path d="M112 188h676M112 270h676M112 352h676M112 434h676M112 516h676M112 598h676M112 680h676M112 762h676M112 844h676M112 926h676" stroke="#b7b0da" stroke-opacity=".53" stroke-width="3"/><text x="168" y="214" fill="#30454a" font-family="cursive" font-size="44">Demo feedback</text><text x="168" y="338" fill="#30454a" font-family="cursive" font-size="38">“I found out that asking</text><text x="168" y="410" fill="#30454a" font-family="cursive" font-size="38">one more question can change</text><text x="168" y="482" fill="#30454a" font-family="cursive" font-size="38">the whole experiment.”</text><path d="M170 524c165-7 298 17 450-5" stroke="#c97991" stroke-width="6" fill="none" stroke-linecap="round"/><text x="168" y="641" fill="#6a7d71" font-family="sans-serif" font-size="21" letter-spacing="3">PROTOTYPE FIXTURE · NOT A STUDENT RECORD</text><path d="M586 819c0-36 46-52 64-19 18-33 64-17 64 19 0 46-64 85-64 85s-64-39-64-85Z" fill="#e8785d" opacity=".78"/></g>
</svg>
